<svg width="45" height="36" viewBox="0 0 45 36" fill="none" xmlns="http://www.w3.org/2000/svg">
<path d="M13.2039 0C10.265 0 7.63878 1.84583 6.66955 4.5904L3.1066 14.6719C1.20448 15.9113 0 18.0519 0 20.4074V32.5714C0 34.4657 1.54904 36 3.46154 36C5.37404 36 6.92308 34.4657 6.92308 32.5714V30.4085C6.92308 30.4085 16.0633 30.8571 22.5 30.8571C28.9367 30.8571 38.0769 30.4085 38.0769 30.4085V32.5714C38.0769 34.4657 39.626 36 41.5385 36C43.451 36 45 34.4657 45 32.5714V20.4074C45 18.0519 43.7921 15.9096 41.8934 14.6719L38.3338 4.59375C37.3629 1.84746 34.735 0 31.7961 0H13.2039ZM13.2039 3.42857H31.7961C33.2673 3.42857 34.5786 4.35059 35.065 5.72545L37.0459 11.3371C37.3574 12.2199 36.6165 13.1101 35.6836 12.9609C32.2896 12.4175 27.926 12 22.5 12C17.074 12 12.7104 12.4175 9.31641 12.9609C8.38352 13.1101 7.64256 12.2199 7.9541 11.3371L9.93502 5.72545C10.4214 4.35059 11.7327 3.42857 13.2039 3.42857ZM16.4423 5.14286C15.7538 5.14286 15.0934 5.41377 14.6066 5.89601C14.1197 6.37825 13.8462 7.0323 13.8462 7.71429C13.8462 8.39627 14.1197 9.05032 14.6066 9.53256C15.0934 10.0148 15.7538 10.2857 16.4423 10.2857C17.1309 10.2857 17.7912 10.0148 18.2781 9.53256C18.7649 9.05032 19.0385 8.39627 19.0385 7.71429C19.0385 7.0323 18.7649 6.37825 18.2781 5.89601C17.7912 5.41377 17.1309 5.14286 16.4423 5.14286ZM28.5577 5.14286C27.8692 5.14286 27.2088 5.41377 26.7219 5.89601C26.2351 6.37825 25.9615 7.0323 25.9615 7.71429C25.9615 8.39627 26.2351 9.05032 26.7219 9.53256C27.2088 10.0148 27.8692 10.2857 28.5577 10.2857C29.2462 10.2857 29.9066 10.0148 30.3934 9.53256C30.8803 9.05032 31.1538 8.39627 31.1538 7.71429C31.1538 7.0323 30.8803 6.37825 30.3934 5.89601C29.9066 5.41377 29.2462 5.14286 28.5577 5.14286ZM7.78846 18.8571C9.22154 18.8571 10.3846 20.0091 10.3846 21.4286C10.3846 22.848 9.22154 24 7.78846 24C6.35538 24 5.19231 22.848 5.19231 21.4286C5.19231 20.0091 6.35538 18.8571 7.78846 18.8571ZM17.3077 18.8571H27.6923C28.6477 18.8571 29.4231 19.6251 29.4231 20.5714C29.4231 21.5177 28.6477 22.2857 27.6923 22.2857H17.3077C16.3523 22.2857 15.5769 21.5177 15.5769 20.5714C15.5769 19.6251 16.3523 18.8571 17.3077 18.8571ZM37.2115 18.8571C38.6446 18.8571 39.8077 20.0091 39.8077 21.4286C39.8077 22.848 38.6446 24 37.2115 24C35.7785 24 34.6154 22.848 34.6154 21.4286C34.6154 20.0091 35.7785 18.8571 37.2115 18.8571Z" fill="white"/>
</svg>
