<svg width="46" height="39" viewBox="0 0 46 39" fill="none" xmlns="http://www.w3.org/2000/svg">
<path d="M3.53846 0C1.58346 0 0 1.58659 0 3.54545V31.9091C0 33.868 1.58346 35.4545 3.53846 35.4545H17.6923C19.6473 35.4545 21.2308 37.0411 21.2308 39V3.54545C21.2308 1.58659 19.6473 0 17.6923 0H3.53846ZM28.3077 0C26.3527 0 24.7692 1.58659 24.7692 3.54545V39C24.7692 37.0411 26.3527 35.4545 28.3077 35.4545H42.4615C44.4165 35.4545 46 33.868 46 31.9091V3.54545C46 1.58659 44.4165 0 42.4615 0H28.3077ZM7.57452 7.09091H13.6562C14.4683 7.09091 15.1773 7.64544 15.3736 8.4343L15.9231 10.6364L17.174 11.8897C17.5066 12.223 17.6923 12.6733 17.6923 13.1431V18.6136C17.6923 19.1029 17.296 19.5 16.8077 19.5H15.0385C14.5502 19.5 14.1538 19.1029 14.1538 18.6136V17.7273H7.07692V18.6136C7.07692 19.1029 6.68062 19.5 6.19231 19.5H4.42308C3.93477 19.5 3.53846 19.1029 3.53846 18.6136V13.1431C3.53846 12.6733 3.72418 12.2212 4.05679 11.8897L5.30769 10.6364L5.85712 8.4343C6.05351 7.64544 6.76244 7.09091 7.57452 7.09091ZM30.0769 10.6364H40.6923C41.6707 10.6364 42.4615 11.4288 42.4615 12.4091C42.4615 13.3894 41.6707 14.1818 40.6923 14.1818H30.0769C29.0985 14.1818 28.3077 13.3894 28.3077 12.4091C28.3077 11.4288 29.0985 10.6364 30.0769 10.6364ZM5.30769 12.4091V14.1818H8.84615V12.4091H5.30769ZM12.3846 12.4091V14.1818H15.9231V12.4091H12.3846ZM30.0769 17.7273H40.6923C41.6707 17.7273 42.4615 18.5197 42.4615 19.5C42.4615 20.4803 41.6707 21.2727 40.6923 21.2727H30.0769C29.0985 21.2727 28.3077 20.4803 28.3077 19.5C28.3077 18.5197 29.0985 17.7273 30.0769 17.7273ZM5.30769 24.8182H15.9231C16.9015 24.8182 17.6923 25.6106 17.6923 26.5909C17.6923 27.5712 16.9015 28.3636 15.9231 28.3636H5.30769C4.32931 28.3636 3.53846 27.5712 3.53846 26.5909C3.53846 25.6106 4.32931 24.8182 5.30769 24.8182ZM30.0769 24.8182H40.6923C41.6707 24.8182 42.4615 25.6106 42.4615 26.5909C42.4615 27.5712 41.6707 28.3636 40.6923 28.3636H30.0769C29.0985 28.3636 28.3077 27.5712 28.3077 26.5909C28.3077 25.6106 29.0985 24.8182 30.0769 24.8182Z" fill="white"/>
</svg>
