<svg width="48" height="48" viewBox="0 0 48 48" fill="none" xmlns="http://www.w3.org/2000/svg">
<path d="M8.34783 0C6.62364 0 5.21739 1.40625 5.21739 3.13043V9.42391L4.17391 10.4674C1.54076 14.3193 0 18.9823 0 24C0 37.2554 10.7446 48 24 48C37.2554 48 48 37.2554 48 24C48 10.7446 37.2554 0 24 0C19.4062 0 15.1264 1.31658 11.4783 3.55435V3.13043C11.4783 1.40625 10.072 0 8.34783 0ZM8.34783 2.08696C8.92255 2.08696 9.3913 2.55571 9.3913 3.13043V7.69565C13.3899 4.1087 18.5625 2.08696 24 2.08696C36.0815 2.08696 45.913 11.9185 45.913 24C45.913 36.0815 36.0815 45.913 24 45.913C11.9185 45.913 2.08696 36.0815 2.08696 24C2.08696 20.5109 2.94294 17.038 4.53261 13.9565L6.3587 14.9022C4.89946 17.7269 4.17391 20.7962 4.17391 24C4.17391 34.9321 13.0679 43.8261 24 43.8261C34.9321 43.8261 43.8261 34.9321 43.8261 24C43.8261 13.0679 34.9321 4.17391 24 4.17391C19.0109 4.17391 14.2663 6.06114 10.6304 9.3913H15.6522C16.2269 9.3913 16.6957 9.86005 16.6957 10.4348C16.6957 11.0095 16.2269 11.4783 15.6522 11.4783H7.30435V3.13043C7.30435 2.55571 7.7731 2.08696 8.34783 2.08696ZM24 6.26087C24.5788 6.26087 25.0435 6.72962 25.0435 7.30435C25.0435 7.87908 24.5788 8.34783 24 8.34783C23.4253 8.34783 22.9565 7.87908 22.9565 7.30435C22.9565 6.72962 23.4253 6.26087 24 6.26087ZM32.5761 8.54348C32.7106 8.55978 32.8451 8.60054 32.9674 8.67391C33.4647 8.96332 33.6155 9.61141 33.3261 10.1087C33.0367 10.606 32.3886 10.7894 31.8913 10.5C31.394 10.2106 31.2432 9.5625 31.5326 9.06522C31.7527 8.69022 32.1726 8.49049 32.5761 8.54348ZM38.3804 14.6739C38.784 14.625 39.1793 14.8207 39.3913 15.1957C39.6766 15.697 39.5014 16.3451 39 16.6304C38.4986 16.9158 37.8832 16.7405 37.5978 16.2391C37.3125 15.7378 37.4878 15.0897 37.9891 14.8043C38.1155 14.731 38.2459 14.6902 38.3804 14.6739ZM17.087 15.5543C19.8791 15.5543 21.913 17.3356 21.913 19.7609C21.913 21.3179 21.1834 22.5815 18.7174 25.0761L15.4239 28.4022V28.5652H22.1739V30.6196H12.2609V28.9565L17.2174 23.8043C19.1861 21.7541 19.663 20.9715 19.663 19.8913C19.663 18.5462 18.5054 17.5435 16.9891 17.5435C15.3668 17.5435 14.2826 18.5829 14.2826 20.1522V20.1848H12.1304V20.1522C12.1304 17.4416 14.1929 15.5543 17.087 15.5543ZM30.8804 15.913H34.1087V25.7283H36.163V27.7826H34.1087V30.6196H31.9239V27.7826H24.75V25.663C26.0666 23.2582 28.2595 19.8383 30.8804 15.913ZM31.8261 17.9348C30.3709 20.0421 28.6671 22.6223 26.9348 25.6304V25.7935H31.9565V17.9348H31.8261ZM7.30435 22.9565C7.87908 22.9565 8.34783 23.4253 8.34783 24C8.34783 24.5788 7.87908 25.0435 7.30435 25.0435C6.72962 25.0435 6.26087 24.5788 6.26087 24C6.26087 23.4253 6.72962 22.9565 7.30435 22.9565ZM40.6957 22.9565C41.2745 22.9565 41.7391 23.4253 41.7391 24C41.7391 24.5788 41.2745 25.0435 40.6957 25.0435C40.1168 25.0435 39.6522 24.5788 39.6522 24C39.6522 23.4253 40.1168 22.9565 40.6957 22.9565ZM9.3913 31.2391C9.79484 31.1902 10.1861 31.3859 10.4022 31.7609C10.6875 32.2622 10.5122 32.9103 10.0109 33.1957C9.50951 33.481 8.89402 33.3057 8.6087 32.8043C8.32337 32.303 8.49864 31.6549 9 31.3696C9.12636 31.2962 9.25679 31.2554 9.3913 31.2391ZM38.5435 31.4022C38.678 31.4185 38.8125 31.4592 38.9348 31.5326C39.4321 31.822 39.6196 32.4701 39.3261 32.9674C39.0367 33.4647 38.3886 33.6155 37.8913 33.3261C37.394 33.0367 37.2106 32.3886 37.5 31.8913C37.716 31.5163 38.1399 31.3492 38.5435 31.4022ZM15.7174 37.3696C15.8519 37.3859 15.9864 37.4266 16.1087 37.5C16.606 37.7894 16.7568 38.4375 16.4674 38.9348C16.178 39.4321 15.5299 39.6196 15.0326 39.3261C14.5353 39.0367 14.3845 38.3886 14.6739 37.8913C14.894 37.5163 15.3139 37.3166 15.7174 37.3696ZM32.1196 37.5C32.5231 37.4511 32.9185 37.6467 33.1304 38.0217C33.4117 38.5231 33.2405 39.1386 32.7391 39.4239C32.2378 39.7092 31.6223 39.534 31.337 39.0326C31.0516 38.5312 31.2269 37.9158 31.7283 37.6304C31.8546 37.5611 31.9851 37.5163 32.1196 37.5ZM24 39.6522C24.5788 39.6522 25.0435 40.1168 25.0435 40.6957C25.0435 41.2745 24.5788 41.7391 24 41.7391C23.4253 41.7391 22.9565 41.2745 22.9565 40.6957C22.9565 40.1168 23.4253 39.6522 24 39.6522Z" fill="white"/>
</svg>
