<svg width="48" height="42" viewBox="0 0 48 42" fill="none" xmlns="http://www.w3.org/2000/svg">
<path d="M4.17387 0C1.8709 0 0 1.85365 0 4.13538V7.23692H43.8256V4.13538C43.8256 1.85365 41.9547 0 39.6517 0H4.17387ZM0 12.4062V26.88C0 29.1617 1.8709 31.0154 4.17387 31.0154H39.6517C41.9547 31.0154 43.8256 29.1617 43.8256 26.88V12.4062H0ZM7.30427 15.5077H23.9997V17.5754H7.30427V15.5077ZM45.9125 19.7077V26.88C45.9125 30.3006 43.1041 33.0831 39.6517 33.0831H4.17387C4.04751 33.0831 3.90892 33.0588 3.78257 33.0508L4.79342 38.5754C4.98907 39.6658 5.57602 40.6269 6.48906 41.2569C7.19829 41.7496 8.02165 42 8.86946 42C9.11403 42 9.37489 41.9798 9.61946 41.9354L44.543 35.7646C45.6394 35.5708 46.6136 34.9569 47.2495 34.0523C47.8853 33.1477 48.1299 32.0694 47.9342 30.9831L45.9125 19.7077Z" fill="#FF1820"/>
</svg>
