<svg width="25" height="24" viewBox="0 0 25 24" fill="none" xmlns="http://www.w3.org/2000/svg">
<path fill-rule="evenodd" clip-rule="evenodd" d="M12.7164 -0.000488281C19.5003 -0.000488281 24.9997 5.2537 24.9997 11.7351C24.9997 18.2164 19.5003 23.4706 12.7164 23.4706C5.93252 23.4706 0.433105 18.2164 0.433105 11.7351C0.433105 5.2537 5.93252 -0.000488281 12.7164 -0.000488281ZM15.9891 10.2481C15.9293 9.7844 15.7801 9.42031 15.5152 9.0978C15.1712 8.68252 14.7316 8.43384 14.0808 8.28632C13.6566 8.188 13.4852 8.19929 13.3318 8.33317C13.1889 8.4586 13.161 8.71005 13.2702 8.87288C13.347 8.99107 13.4356 9.03341 13.682 9.07962C14.0101 9.1373 14.2369 9.21216 14.4432 9.32484C14.881 9.56636 15.0849 9.94432 15.1067 10.5562C15.1169 10.8435 15.1429 10.9318 15.2479 11.0337C15.4426 11.22 15.789 11.1838 15.936 10.9609C15.9899 10.8769 15.9981 10.8403 16.0038 10.6452C16.0076 10.5244 16.0021 10.3446 15.9891 10.2481ZM15.9947 7.40302C17.0356 8.20721 17.6172 9.35021 17.7036 10.7709C17.74 11.3304 17.6917 11.5127 17.4851 11.6165C17.2986 11.7127 17.0874 11.681 16.9425 11.5362C16.8464 11.442 16.8096 11.3132 16.811 11.0851C16.8152 10.4544 16.6631 9.75014 16.4159 9.26143C16.1297 8.69264 15.6873 8.2086 15.1308 7.85471C14.6433 7.54389 13.9982 7.33394 13.3727 7.28166C12.967 7.24774 12.8221 7.18209 12.7443 6.99627C12.696 6.88511 12.7088 6.69293 12.7653 6.60686C12.8188 6.52749 12.9388 6.43972 13.0236 6.41652C13.1136 6.39146 13.6376 6.43527 13.9223 6.48931C14.6993 6.64043 15.4082 6.95115 15.9947 7.40302ZM19.6012 16.242C19.5722 16.1608 19.5043 16.0356 19.4558 15.9637C19.1503 15.523 17.5091 14.2958 16.6897 13.8945C16.2219 13.6649 15.8752 13.5884 15.6182 13.6602C15.3418 13.7345 15.1964 13.8574 14.7333 14.4072C14.5467 14.6276 14.3552 14.834 14.3043 14.8665C14.1782 14.95 13.9309 15.0173 13.7564 15.0173C13.3515 15.0149 12.617 14.7644 12.0521 14.435C11.6133 14.1799 11.0509 13.7229 10.6194 13.2706C10.1103 12.7394 9.76365 12.2708 9.48968 11.7419C9.13576 11.0623 9.04606 10.647 9.19392 10.3431C9.23029 10.2666 9.27878 10.1854 9.30057 10.1599C9.32241 10.1367 9.5503 9.95808 9.80239 9.76323C10.297 9.38746 10.377 9.30163 10.4691 9.04415C10.5854 8.71705 10.5539 8.38303 10.3745 8.04669C10.2363 7.79152 9.87514 7.23481 9.61333 6.87527C9.26666 6.40208 8.40362 5.3907 8.23147 5.2538C7.92117 5.01258 7.52363 4.9708 7.0848 5.13321C6.62181 5.30487 5.7539 5.97293 5.38298 6.43918C5.04843 6.86135 4.91999 7.16057 4.90057 7.55492C4.88361 7.87966 4.91269 8.0142 5.09209 8.42944C6.49574 11.6862 8.59026 14.2866 11.4679 16.3511C12.9709 17.4297 14.5297 18.2509 16.1467 18.8123C17.0897 19.1393 17.4994 19.1555 17.9818 18.8865C18.1855 18.7705 18.6897 18.2764 18.9709 17.9169C19.4364 17.3184 19.6085 17.0423 19.657 16.822C19.6909 16.6712 19.6643 16.4091 19.6012 16.242ZM18.9816 8.89963C19.2769 9.63453 19.4185 10.2937 19.4496 11.0973C19.4545 11.2561 19.4522 11.5469 19.4414 11.7439C19.419 12.1216 19.3976 12.1967 19.2837 12.2966C19.1008 12.4606 18.7443 12.4215 18.609 12.2239C18.5384 12.1179 18.5285 12.0402 18.5422 11.5989C18.5814 10.2936 18.3051 9.27155 17.6394 8.24958C16.844 7.02348 15.6542 6.19752 14.107 5.79344C13.7124 5.69059 13.3799 5.6279 12.8628 5.56138C12.5259 5.51926 12.4522 5.50145 12.369 5.45256C12.1179 5.29887 12.1145 4.9097 12.3649 4.75368C12.4941 4.67131 12.5894 4.66763 13.0105 4.71916C14.2454 4.8666 15.3473 5.21717 16.2527 5.74693C16.9017 6.12716 17.3109 6.46873 17.8377 7.06696C18.395 7.705 18.69 8.17673 18.9816 8.89963Z" fill="white"/>
</svg>
