<svg width="28" height="16" viewBox="0 0 28 16" fill="none" xmlns="http://www.w3.org/2000/svg">
<path d="M13.9699 15.0863C14.2836 15.0812 14.5831 14.9533 14.805 14.7294L26.8833 2.54926C26.9992 2.43702 27.0917 2.30259 27.1555 2.15384C27.2193 2.00508 27.2529 1.845 27.2546 1.68295C27.2562 1.5209 27.2258 1.36016 27.165 1.21013C27.1043 1.06009 27.0145 0.923792 26.9008 0.809202C26.7872 0.694613 26.652 0.604036 26.5033 0.542784C26.3545 0.481531 26.1951 0.45083 26.0344 0.452479C25.8737 0.454128 25.715 0.488092 25.5674 0.552385C25.4199 0.616678 25.2866 0.710008 25.1753 0.826904L13.951 12.1459L2.72665 0.826904C2.61535 0.710006 2.48205 0.616677 2.33454 0.552383C2.18703 0.488089 2.02827 0.454122 1.86758 0.452473C1.70689 0.450823 1.54749 0.481526 1.39871 0.542779C1.24993 0.604033 1.11477 0.694605 1.00114 0.809195C0.887506 0.923785 0.797691 1.06009 0.736952 1.21012C0.67621 1.36015 0.645763 1.5209 0.6474 1.68295C0.649035 1.84499 0.682718 2.00508 0.746475 2.15384C0.810232 2.30259 0.902779 2.43702 1.0187 2.54926L13.097 14.7294C13.2114 14.8448 13.3476 14.9359 13.4975 14.9972C13.6475 15.0585 13.8081 15.0888 13.9699 15.0863Z" fill="white"/>
</svg>
