<svg width="16" height="9" viewBox="0 0 16 9" fill="none" xmlns="http://www.w3.org/2000/svg">
<path d="M7.98865 8.99991C7.79997 8.99681 7.61987 8.9181 7.48647 8.78045L0.223311 1.28957C0.153604 1.22055 0.0979515 1.13787 0.059613 1.04639C0.0212745 0.954905 0.00102071 0.856449 3.75952e-05 0.75679C-0.000945522 0.657131 0.0173619 0.558271 0.0538877 0.466001C0.0904135 0.37373 0.144424 0.289904 0.212754 0.21943C0.281085 0.148956 0.362363 0.0932522 0.451829 0.0555811C0.541295 0.01791 0.637149 -0.000969887 0.733778 4.3869e-05C0.830408 0.00105762 0.92587 0.021946 1.01457 0.0614862C1.10328 0.101027 1.18344 0.158425 1.25037 0.230318L8 7.19157L14.7496 0.230318C14.8166 0.158424 14.8967 0.101027 14.9854 0.0614853C15.0741 0.021944 15.1696 0.00105476 15.2662 4.00543e-05C15.3628 -0.000974655 15.4587 0.0179081 15.5482 0.0555792C15.6376 0.0932503 15.7189 0.148952 15.7872 0.219426C15.8556 0.2899 15.9096 0.373727 15.9461 0.465998C15.9826 0.558269 16.0009 0.657129 16 0.756789C15.999 0.856449 15.9787 0.954904 15.9404 1.04639C15.902 1.13787 15.8464 1.22055 15.7767 1.28957L8.51353 8.78045C8.44475 8.85142 8.36284 8.90742 8.27268 8.94512C8.18252 8.98281 8.08593 9.00145 7.98865 8.99991Z" fill="#FF1820"/>
</svg>
